<svg width="23" height="70" viewBox="0 0 23 70" fill="none" xmlns="http://www.w3.org/2000/svg">
<path d="M12.9004 1.99962C12.9002 1.1712 12.2284 0.499792 11.4 0.5C10.5716 0.500208 9.90018 1.17195 9.90039 2.00038L12.9004 1.99962ZM10.3567 69.5517C10.9426 70.1373 11.8924 70.1371 12.478 69.5511L22.0216 60.0028C22.6072 59.4169 22.607 58.4671 22.021 57.8815C21.4351 57.2958 20.4853 57.2961 19.8997 57.882L11.4165 66.3694L2.92914 57.8863C2.3432 57.3006 1.39345 57.3009 0.807817 57.8868C0.222177 58.4727 0.222414 59.4225 0.808349 60.0081L10.3567 69.5517ZM9.90039 2.00038L9.91708 68.4911L12.9171 68.4904L12.9004 1.99962L9.90039 2.00038Z" fill="url(#paint0_linear_142_1191)"/>
<defs>
<linearGradient id="paint0_linear_142_1191" x1="13.843" y1="66.4473" x2="13.1782" y2="-28.8945" gradientUnits="userSpaceOnUse">
<stop stop-color="#FF552F"/>
<stop offset="0.209355" stop-color="#1F0E0C" stop-opacity="0.49"/>
<stop offset="0.412389" stop-color="#261B1D" stop-opacity="0.68"/>
<stop offset="0.957566" stop-color="#363844" stop-opacity="0"/>
</linearGradient>
</defs>
</svg>
