<svg width="1425" height="417" viewBox="0 0 1425 417" fill="none" xmlns="http://www.w3.org/2000/svg">
<g filter="url(#filter0_f_155_1666)">
<path d="M594.268 12.0679L598.051 30.327" stroke="#767676" stroke-opacity="0.5" stroke-width="2" stroke-linecap="round"/>
<path d="M126.069 197.015L154.445 208.206" stroke="#767676" stroke-opacity="0.5" stroke-width="2" stroke-linecap="round"/>
<path d="M528.841 20.3141L537.303 38.757" stroke="#767676" stroke-opacity="0.5" stroke-width="2" stroke-linecap="round"/>
<path d="M88.2354 231.176L122.286 240.6" stroke="#767676" stroke-opacity="0.5" stroke-width="2" stroke-linecap="round"/>
<path d="M466.874 30.9164L478.224 49.7644" stroke="#767676" stroke-opacity="0.5" stroke-width="2" stroke-linecap="round"/>
<path d="M5 412H36.9358" stroke="#767676" stroke-opacity="0.5" stroke-width="2" stroke-linecap="round"/>
<path d="M712.5 24.4371V5.00002" stroke="#767676" stroke-opacity="0.5" stroke-width="2" stroke-linecap="round"/>
<path d="M205.521 136.524L228.603 150.583" stroke="#767676" stroke-opacity="0.5" stroke-width="2" stroke-linecap="round"/>
<path d="M61.752 265.338L94.4168 272.648" stroke="#767676" stroke-opacity="0.5" stroke-width="2" stroke-linecap="round"/>
<path d="M410.003 47.4083L422.672 64.9203" stroke="#767676" stroke-opacity="0.5" stroke-width="2" stroke-linecap="round"/>
<path d="M39.0508 300.679L72.2675 306.81" stroke="#767676" stroke-opacity="0.5" stroke-width="2" stroke-linecap="round"/>
<path d="M356.023 65.0786L372.353 81.8832" stroke="#767676" stroke-opacity="0.5" stroke-width="2" stroke-linecap="round"/>
<path d="M23.917 337.197L55.0448 341.99" stroke="#767676" stroke-opacity="0.5" stroke-width="2" stroke-linecap="round"/>
<path d="M301.229 87.4603L318.792 103.075" stroke="#767676" stroke-opacity="0.5" stroke-width="2" stroke-linecap="round"/>
<path d="M10.6758 376.071L43.8398 377.407" stroke="#767676" stroke-opacity="0.5" stroke-width="2" stroke-linecap="round"/>
<path d="M252.858 111.021L271.335 126.064" stroke="#767676" stroke-opacity="0.5" stroke-width="2" stroke-linecap="round"/>
<path d="M163.904 164.03L191.196 177.302" stroke="#767676" stroke-opacity="0.5" stroke-width="2" stroke-linecap="round"/>
<path d="M651.799 7.67365L654.803 26.2045" stroke="#767676" stroke-opacity="0.5" stroke-width="2" stroke-linecap="round"/>
<path d="M830.732 12.0679L826.949 30.327" stroke="#767676" stroke-opacity="0.5" stroke-width="2" stroke-linecap="round"/>
<path d="M1298.93 197.015L1270.55 208.206" stroke="#767676" stroke-opacity="0.5" stroke-width="2" stroke-linecap="round"/>
<path d="M896.159 20.3141L887.697 38.757" stroke="#767676" stroke-opacity="0.5" stroke-width="2" stroke-linecap="round"/>
<path d="M1336.76 231.176L1302.71 240.6" stroke="#767676" stroke-opacity="0.5" stroke-width="2" stroke-linecap="round"/>
<path d="M958.126 30.9164L946.776 49.7644" stroke="#767676" stroke-opacity="0.5" stroke-width="2" stroke-linecap="round"/>
<path d="M1420 412H1388.06" stroke="#767676" stroke-opacity="0.5" stroke-width="2" stroke-linecap="round"/>
<path d="M712.5 24.4371V5.00002" stroke="#767676" stroke-opacity="0.5" stroke-width="2" stroke-linecap="round"/>
<path d="M1219.48 136.524L1196.4 150.583" stroke="#767676" stroke-opacity="0.5" stroke-width="2" stroke-linecap="round"/>
<path d="M1363.25 265.338L1330.58 272.648" stroke="#767676" stroke-opacity="0.5" stroke-width="2" stroke-linecap="round"/>
<path d="M1015 47.4083L1002.33 64.9203" stroke="#767676" stroke-opacity="0.5" stroke-width="2" stroke-linecap="round"/>
<path d="M1385.95 300.679L1352.73 306.81" stroke="#767676" stroke-opacity="0.5" stroke-width="2" stroke-linecap="round"/>
<path d="M1068.98 65.0786L1052.65 81.8832" stroke="#767676" stroke-opacity="0.5" stroke-width="2" stroke-linecap="round"/>
<path d="M1401.08 337.197L1369.96 341.99" stroke="#767676" stroke-opacity="0.5" stroke-width="2" stroke-linecap="round"/>
<path d="M1123.77 87.4603L1106.21 103.075" stroke="#767676" stroke-opacity="0.5" stroke-width="2" stroke-linecap="round"/>
<path d="M1414.32 376.071L1381.16 377.407" stroke="#767676" stroke-opacity="0.5" stroke-width="2" stroke-linecap="round"/>
<path d="M1172.14 111.021L1153.66 126.064" stroke="#767676" stroke-opacity="0.5" stroke-width="2" stroke-linecap="round"/>
<path d="M1261.1 164.03L1233.8 177.302" stroke="#767676" stroke-opacity="0.5" stroke-width="2" stroke-linecap="round"/>
<path d="M773.201 7.67365L770.197 26.2045" stroke="#767676" stroke-opacity="0.5" stroke-width="2" stroke-linecap="round"/>
</g>
<defs>
<filter id="filter0_f_155_1666" x="0" y="0" width="1425" height="417" filterUnits="userSpaceOnUse" color-interpolation-filters="sRGB">
<feFlood flood-opacity="0" result="BackgroundImageFix"/>
<feBlend mode="normal" in="SourceGraphic" in2="BackgroundImageFix" result="shape"/>
<feGaussianBlur stdDeviation="2" result="effect1_foregroundBlur_155_1666"/>
</filter>
</defs>
</svg>
